<?xml version="1.0" encoding="UTF-8" standalone="no"?>
<!DOCTYPE svg PUBLIC "-//W3C//DTD SVG 1.1//EN" "http://www.w3.org/Graphics/SVG/1.1/DTD/svg11.dtd">
<svg xmlns="http://www.w3.org/2000/svg" version="1.1" viewBox="0.00 0.00 409.00 409.00">
<g stroke-width="2.00" fill="none" stroke-linecap="butt">
<path stroke="#80def5" vector-effect="non-scaling-stroke" d="
  M 143.62 127.89
  A 6.67 6.67 0.0 0 0 136.95 121.22
  L 136.69 121.22
  A 6.67 6.67 0.0 0 0 130.02 127.89
  L 130.02 201.77
  A 6.67 6.67 0.0 0 0 136.69 208.44
  L 136.95 208.44
  A 6.67 6.67 0.0 0 0 143.62 201.77
  L 143.62 127.89"
/>
<path stroke="#80def5" vector-effect="non-scaling-stroke" d="
  M 296.7539 128.2324
  A 6.96 6.96 0.0 0 0 289.8061 121.2603
  L 289.5461 121.2598
  A 6.96 6.96 0.0 0 0 282.5739 128.2077
  L 282.4461 201.4476
  A 6.96 6.96 0.0 0 0 289.3939 208.4197
  L 289.6539 208.4202
  A 6.96 6.96 0.0 0 0 296.6261 201.4723
  L 296.7539 128.2324"
/>
<path stroke="#80def5" vector-effect="non-scaling-stroke" d="
  M 105.87 154.15
  A 6.81 6.81 0.0 0 0 99.06 147.34
  L 98.58 147.34
  A 6.81 6.81 0.0 0 0 91.77 154.15
  L 91.77 187.71
  A 6.81 6.81 0.0 0 0 98.58 194.52
  L 99.06 194.52
  A 6.81 6.81 0.0 0 0 105.87 187.71
  L 105.87 154.15"
/>
<path stroke="#80def5" vector-effect="non-scaling-stroke" d="
  M 182.0308 154.1577
  A 6.84 6.84 0.0 0 0 175.1788 147.3297
  L 174.7388 147.3304
  A 6.84 6.84 0.0 0 0 167.9108 154.1823
  L 167.9692 187.6823
  A 6.84 6.84 0.0 0 0 174.8212 194.5103
  L 175.2612 194.5096
  A 6.84 6.84 0.0 0 0 182.0892 187.6577
  L 182.0308 154.1577"
/>
<path stroke="#80def5" vector-effect="non-scaling-stroke" d="
  M 258.2300 153.6782
  A 6.42 6.42 0.0 0 0 251.7988 147.2694
  L 251.0988 147.2706
  A 6.42 6.42 0.0 0 0 244.6900 153.7018
  L 244.7500 188.0818
  A 6.42 6.42 0.0 0 0 251.1812 194.4906
  L 251.8812 194.4894
  A 6.42 6.42 0.0 0 0 258.2900 188.0582
  L 258.2300 153.6782"
/>
<path stroke="#80def5" vector-effect="non-scaling-stroke" d="
  M 334.5504 153.9179
  A 6.69 6.69 0.0 0 0 327.8487 147.2396
  L 327.3887 147.2404
  A 6.69 6.69 0.0 0 0 320.7104 153.9421
  L 320.7696 187.9021
  A 6.69 6.69 0.0 0 0 327.4713 194.5804
  L 327.9313 194.5796
  A 6.69 6.69 0.0 0 0 334.6096 187.8779
  L 334.5504 153.9179"
/>
<path stroke="#80def5" vector-effect="non-scaling-stroke" d="
  M 67.5845 173.2456
  A 6.63 6.63 0.0 0 0 60.9314 166.6388
  L 60.1714 166.6414
  A 6.63 6.63 0.0 0 0 53.5646 173.2945
  L 53.6155 187.8744
  A 6.63 6.63 0.0 0 0 60.2686 194.4812
  L 61.0286 194.4786
  A 6.63 6.63 0.0 0 0 67.6354 187.8255
  L 67.5845 173.2456"
/>
<path stroke="#80def5" vector-effect="non-scaling-stroke" d="
  M 220.18 173.14
  A 6.59 6.59 0.0 0 0 213.59 166.55
  L 212.89 166.55
  A 6.59 6.59 0.0 0 0 206.30 173.14
  L 206.30 188.04
  A 6.59 6.59 0.0 0 0 212.89 194.63
  L 213.59 194.63
  A 6.59 6.59 0.0 0 0 220.18 188.04
  L 220.18 173.14"
/>
<path stroke="#80def5" vector-effect="non-scaling-stroke" d="
  M 372.7743 173.2408
  A 6.55 6.55 0.0 0 0 366.2817 166.6338
  L 365.5217 166.6272
  A 6.55 6.55 0.0 0 0 358.9148 173.1198
  L 358.7857 187.9192
  A 6.55 6.55 0.0 0 0 365.2783 194.5262
  L 366.0383 194.5328
  A 6.55 6.55 0.0 0 0 372.6452 188.0402
  L 372.7743 173.2408"
/>
<path stroke="#80def5" vector-effect="non-scaling-stroke" d="
  M 100.83 250.84
  C 106.69 244.18 116.03 244.30 123.73 247.96
  A 0.78 0.78 0.0 0 0 124.84 247.25
  L 124.70 233.75
  A 0.84 0.83 4.6 0 0 124.01 232.94
  C 116.23 231.54 109.45 230.50 101.73 233.08
  C 85.25 238.59 78.18 256.21 84.75 271.88
  C 91.45 287.86 109.17 291.20 124.47 286.92
  A 0.34 0.34 0.0 0 0 124.72 286.59
  L 124.73 272.72
  A 0.57 0.57 0.0 0 0 123.90 272.22
  C 117.76 275.41 109.29 276.10 103.48 272.10
  C 96.80 267.50 95.85 256.50 100.83 250.84"
/>
<path stroke="#80def5" vector-effect="non-scaling-stroke" d="
  M 212.55 262.11
  C 208.63 255.97 201.18 254.25 194.87 251.86
  Q 192.29 250.88 191.26 248.35
  A 1.15 1.11 48.3 0 1 191.30 247.42
  C 194.31 241.57 205.26 243.61 210.37 244.70
  A 0.70 0.69 -84.8 0 0 211.20 244.00
  L 210.97 233.47
  Q 210.96 233.03 210.53 232.96
  Q 203.55 231.72 200.51 231.50
  C 188.20 230.61 175.02 236.25 176.72 251.01
  C 177.99 262.10 189.40 263.76 197.40 267.59
  C 200.52 269.09 201.17 272.90 198.17 274.93
  C 193.77 277.90 182.78 276.20 177.37 274.81
  Q 176.80 274.66 176.80 275.26
  L 176.80 286.26
  A 1.09 1.09 0.0 0 0 177.65 287.32
  C 187.88 289.62 205.57 290.59 212.21 280.00
  C 215.57 274.64 216.02 267.54 212.55 262.11"
/>
<path stroke="#80def5" vector-effect="non-scaling-stroke" d="
  M 247.10 250.44
  C 252.88 244.23 262.20 244.42 269.65 247.86
  A 0.89 0.89 0.0 0 0 270.91 247.04
  L 270.68 233.95
  A 1.12 1.11 4.8 0 0 269.77 232.88
  C 259.50 230.97 251.18 230.36 241.82 235.84
  C 224.99 245.69 223.42 270.97 239.11 282.65
  C 248.01 289.27 259.84 290.21 270.29 286.87
  A 0.59 0.59 0.0 0 0 270.70 286.32
  L 270.89 272.72
  A 0.60 0.60 0.0 0 0 270.03 272.18
  C 263.30 275.54 254.26 276.33 248.40 271.13
  C 242.73 266.09 241.99 255.93 247.10 250.44"
/>
<path stroke="#80def5" vector-effect="non-scaling-stroke" d="
  M 344.1793 260.3456
  A 29.45 28.82 0.4 0 0 314.9312 231.3207
  A 29.45 28.82 0.4 0 0 285.2807 259.9344
  A 29.45 28.82 0.4 0 0 314.5288 288.9593
  A 29.45 28.82 0.4 0 0 344.1793 260.3456"
/>
<path stroke="#80def5" vector-effect="non-scaling-stroke" d="
  M 157.99 233.31
  A 0.62 0.62 0.0 0 0 157.37 232.69
  L 144.45 232.69
  A 0.62 0.62 0.0 0 0 143.83 233.31
  L 143.83 287.25
  A 0.62 0.62 0.0 0 0 144.45 287.87
  L 157.37 287.87
  A 0.62 0.62 0.0 0 0 157.99 287.25
  L 157.99 233.31"
/>
<path stroke="#80def5" vector-effect="non-scaling-stroke" d="
  M 329.20 260.12
  A 14.51 14.51 0.0 0 0 314.69 245.61
  A 14.51 14.51 0.0 0 0 300.18 260.12
  A 14.51 14.51 0.0 0 0 314.69 274.63
  A 14.51 14.51 0.0 0 0 329.20 260.12"
/>
</g>
<path fill="#00bcea" d="
  M 0.00 0.00
  L 409.00 0.00
  L 409.00 409.00
  L 0.00 409.00
  L 0.00 0.00
  Z
  M 143.62 127.89
  A 6.67 6.67 0.0 0 0 136.95 121.22
  L 136.69 121.22
  A 6.67 6.67 0.0 0 0 130.02 127.89
  L 130.02 201.77
  A 6.67 6.67 0.0 0 0 136.69 208.44
  L 136.95 208.44
  A 6.67 6.67 0.0 0 0 143.62 201.77
  L 143.62 127.89
  Z
  M 296.7539 128.2324
  A 6.96 6.96 0.0 0 0 289.8061 121.2603
  L 289.5461 121.2598
  A 6.96 6.96 0.0 0 0 282.5739 128.2077
  L 282.4461 201.4476
  A 6.96 6.96 0.0 0 0 289.3939 208.4197
  L 289.6539 208.4202
  A 6.96 6.96 0.0 0 0 296.6261 201.4723
  L 296.7539 128.2324
  Z
  M 105.87 154.15
  A 6.81 6.81 0.0 0 0 99.06 147.34
  L 98.58 147.34
  A 6.81 6.81 0.0 0 0 91.77 154.15
  L 91.77 187.71
  A 6.81 6.81 0.0 0 0 98.58 194.52
  L 99.06 194.52
  A 6.81 6.81 0.0 0 0 105.87 187.71
  L 105.87 154.15
  Z
  M 182.0308 154.1577
  A 6.84 6.84 0.0 0 0 175.1788 147.3297
  L 174.7388 147.3304
  A 6.84 6.84 0.0 0 0 167.9108 154.1823
  L 167.9692 187.6823
  A 6.84 6.84 0.0 0 0 174.8212 194.5103
  L 175.2612 194.5096
  A 6.84 6.84 0.0 0 0 182.0892 187.6577
  L 182.0308 154.1577
  Z
  M 258.2300 153.6782
  A 6.42 6.42 0.0 0 0 251.7988 147.2694
  L 251.0988 147.2706
  A 6.42 6.42 0.0 0 0 244.6900 153.7018
  L 244.7500 188.0818
  A 6.42 6.42 0.0 0 0 251.1812 194.4906
  L 251.8812 194.4894
  A 6.42 6.42 0.0 0 0 258.2900 188.0582
  L 258.2300 153.6782
  Z
  M 334.5504 153.9179
  A 6.69 6.69 0.0 0 0 327.8487 147.2396
  L 327.3887 147.2404
  A 6.69 6.69 0.0 0 0 320.7104 153.9421
  L 320.7696 187.9021
  A 6.69 6.69 0.0 0 0 327.4713 194.5804
  L 327.9313 194.5796
  A 6.69 6.69 0.0 0 0 334.6096 187.8779
  L 334.5504 153.9179
  Z
  M 67.5845 173.2456
  A 6.63 6.63 0.0 0 0 60.9314 166.6388
  L 60.1714 166.6414
  A 6.63 6.63 0.0 0 0 53.5646 173.2945
  L 53.6155 187.8744
  A 6.63 6.63 0.0 0 0 60.2686 194.4812
  L 61.0286 194.4786
  A 6.63 6.63 0.0 0 0 67.6354 187.8255
  L 67.5845 173.2456
  Z
  M 220.18 173.14
  A 6.59 6.59 0.0 0 0 213.59 166.55
  L 212.89 166.55
  A 6.59 6.59 0.0 0 0 206.30 173.14
  L 206.30 188.04
  A 6.59 6.59 0.0 0 0 212.89 194.63
  L 213.59 194.63
  A 6.59 6.59 0.0 0 0 220.18 188.04
  L 220.18 173.14
  Z
  M 372.7743 173.2408
  A 6.55 6.55 0.0 0 0 366.2817 166.6338
  L 365.5217 166.6272
  A 6.55 6.55 0.0 0 0 358.9148 173.1198
  L 358.7857 187.9192
  A 6.55 6.55 0.0 0 0 365.2783 194.5262
  L 366.0383 194.5328
  A 6.55 6.55 0.0 0 0 372.6452 188.0402
  L 372.7743 173.2408
  Z
  M 100.83 250.84
  C 106.69 244.18 116.03 244.30 123.73 247.96
  A 0.78 0.78 0.0 0 0 124.84 247.25
  L 124.70 233.75
  A 0.84 0.83 4.6 0 0 124.01 232.94
  C 116.23 231.54 109.45 230.50 101.73 233.08
  C 85.25 238.59 78.18 256.21 84.75 271.88
  C 91.45 287.86 109.17 291.20 124.47 286.92
  A 0.34 0.34 0.0 0 0 124.72 286.59
  L 124.73 272.72
  A 0.57 0.57 0.0 0 0 123.90 272.22
  C 117.76 275.41 109.29 276.10 103.48 272.10
  C 96.80 267.50 95.85 256.50 100.83 250.84
  Z
  M 212.55 262.11
  C 208.63 255.97 201.18 254.25 194.87 251.86
  Q 192.29 250.88 191.26 248.35
  A 1.15 1.11 48.3 0 1 191.30 247.42
  C 194.31 241.57 205.26 243.61 210.37 244.70
  A 0.70 0.69 -84.8 0 0 211.20 244.00
  L 210.97 233.47
  Q 210.96 233.03 210.53 232.96
  Q 203.55 231.72 200.51 231.50
  C 188.20 230.61 175.02 236.25 176.72 251.01
  C 177.99 262.10 189.40 263.76 197.40 267.59
  C 200.52 269.09 201.17 272.90 198.17 274.93
  C 193.77 277.90 182.78 276.20 177.37 274.81
  Q 176.80 274.66 176.80 275.26
  L 176.80 286.26
  A 1.09 1.09 0.0 0 0 177.65 287.32
  C 187.88 289.62 205.57 290.59 212.21 280.00
  C 215.57 274.64 216.02 267.54 212.55 262.11
  Z
  M 247.10 250.44
  C 252.88 244.23 262.20 244.42 269.65 247.86
  A 0.89 0.89 0.0 0 0 270.91 247.04
  L 270.68 233.95
  A 1.12 1.11 4.8 0 0 269.77 232.88
  C 259.50 230.97 251.18 230.36 241.82 235.84
  C 224.99 245.69 223.42 270.97 239.11 282.65
  C 248.01 289.27 259.84 290.21 270.29 286.87
  A 0.59 0.59 0.0 0 0 270.70 286.32
  L 270.89 272.72
  A 0.60 0.60 0.0 0 0 270.03 272.18
  C 263.30 275.54 254.26 276.33 248.40 271.13
  C 242.73 266.09 241.99 255.93 247.10 250.44
  Z
  M 344.1793 260.3456
  A 29.45 28.82 0.4 0 0 314.9312 231.3207
  A 29.45 28.82 0.4 0 0 285.2807 259.9344
  A 29.45 28.82 0.4 0 0 314.5288 288.9593
  A 29.45 28.82 0.4 0 0 344.1793 260.3456
  Z
  M 157.99 233.31
  A 0.62 0.62 0.0 0 0 157.37 232.69
  L 144.45 232.69
  A 0.62 0.62 0.0 0 0 143.83 233.31
  L 143.83 287.25
  A 0.62 0.62 0.0 0 0 144.45 287.87
  L 157.37 287.87
  A 0.62 0.62 0.0 0 0 157.99 287.25
  L 157.99 233.31
  Z"
/>
<rect fill="#ffffff" x="130.02" y="121.22" width="13.60" height="87.22" rx="6.67"/>
<rect fill="#ffffff" x="-7.09" y="-43.58" transform="translate(289.60,164.84) rotate(0.1)" width="14.18" height="87.16" rx="6.96"/>
<rect fill="#ffffff" x="91.77" y="147.34" width="14.10" height="47.18" rx="6.81"/>
<rect fill="#ffffff" x="-7.06" y="-23.59" transform="translate(175.00,170.92) rotate(-0.1)" width="14.12" height="47.18" rx="6.84"/>
<rect fill="#ffffff" x="-6.77" y="-23.61" transform="translate(251.49,170.88) rotate(-0.1)" width="13.54" height="47.22" rx="6.42"/>
<rect fill="#ffffff" x="-6.92" y="-23.67" transform="translate(327.66,170.91) rotate(-0.1)" width="13.84" height="47.34" rx="6.69"/>
<rect fill="#ffffff" x="-7.01" y="-13.92" transform="translate(60.60,180.56) rotate(-0.2)" width="14.02" height="27.84" rx="6.63"/>
<rect fill="#ffffff" x="206.30" y="166.55" width="13.88" height="28.08" rx="6.59"/>
<rect fill="#ffffff" x="-6.93" y="-13.95" transform="translate(365.78,180.58) rotate(0.5)" width="13.86" height="27.90" rx="6.55"/>
<path fill="#ffffff" d="
  M 100.83 250.84
  C 95.85 256.50 96.80 267.50 103.48 272.10
  C 109.29 276.10 117.76 275.41 123.90 272.22
  A 0.57 0.57 0.0 0 1 124.73 272.72
  L 124.72 286.59
  A 0.34 0.34 0.0 0 1 124.47 286.92
  C 109.17 291.20 91.45 287.86 84.75 271.88
  C 78.18 256.21 85.25 238.59 101.73 233.08
  C 109.45 230.50 116.23 231.54 124.01 232.94
  A 0.84 0.83 4.6 0 1 124.70 233.75
  L 124.84 247.25
  A 0.78 0.78 0.0 0 1 123.73 247.96
  C 116.03 244.30 106.69 244.18 100.83 250.84
  Z"
/>
<path fill="#ffffff" d="
  M 194.87 251.86
  C 201.18 254.25 208.63 255.97 212.55 262.11
  C 216.02 267.54 215.57 274.64 212.21 280.00
  C 205.57 290.59 187.88 289.62 177.65 287.32
  A 1.09 1.09 0.0 0 1 176.80 286.26
  L 176.80 275.26
  Q 176.80 274.66 177.37 274.81
  C 182.78 276.20 193.77 277.90 198.17 274.93
  C 201.17 272.90 200.52 269.09 197.40 267.59
  C 189.40 263.76 177.99 262.10 176.72 251.01
  C 175.02 236.25 188.20 230.61 200.51 231.50
  Q 203.55 231.72 210.53 232.96
  Q 210.96 233.03 210.97 233.47
  L 211.20 244.00
  A 0.70 0.69 -84.8 0 1 210.37 244.70
  C 205.26 243.61 194.31 241.57 191.30 247.42
  A 1.15 1.11 48.3 0 0 191.26 248.35
  Q 192.29 250.88 194.87 251.86
  Z"
/>
<path fill="#ffffff" d="
  M 247.10 250.44
  C 241.99 255.93 242.73 266.09 248.40 271.13
  C 254.26 276.33 263.30 275.54 270.03 272.18
  A 0.60 0.60 0.0 0 1 270.89 272.72
  L 270.70 286.32
  A 0.59 0.59 0.0 0 1 270.29 286.87
  C 259.84 290.21 248.01 289.27 239.11 282.65
  C 223.42 270.97 224.99 245.69 241.82 235.84
  C 251.18 230.36 259.50 230.97 269.77 232.88
  A 1.12 1.11 4.8 0 1 270.68 233.95
  L 270.91 247.04
  A 0.89 0.89 0.0 0 1 269.65 247.86
  C 262.20 244.42 252.88 244.23 247.10 250.44
  Z"
/>
<path fill="#ffffff" d="
  M 344.1793 260.3456
  A 29.45 28.82 0.4 0 1 314.5288 288.9593
  A 29.45 28.82 0.4 0 1 285.2807 259.9344
  A 29.45 28.82 0.4 0 1 314.9312 231.3207
  A 29.45 28.82 0.4 0 1 344.1793 260.3456
  Z
  M 329.20 260.12
  A 14.51 14.51 0.0 0 0 314.69 245.61
  A 14.51 14.51 0.0 0 0 300.18 260.12
  A 14.51 14.51 0.0 0 0 314.69 274.63
  A 14.51 14.51 0.0 0 0 329.20 260.12
  Z"
/>
<rect fill="#ffffff" x="143.83" y="232.69" width="14.16" height="55.18" rx="0.62"/>
<circle fill="#00bcea" cx="314.69" cy="260.12" r="14.51"/>
</svg>
