<svg width="66" height="66" viewBox="0 0 66 66" fill="none" xmlns="http://www.w3.org/2000/svg">
<g id="security_5843859 1" clip-path="url(#clip0_52_4722)">
<g id="Layer_x0020_1">
<g id="_304966232">
<path id="_304966904" fill-rule="evenodd" clip-rule="evenodd" d="M61.9024 37.716V12.8396L59.7608 12.221C56.5329 11.2884 53.5518 9.56903 51.8134 6.60941C51.2265 5.61003 50.6018 4.04488 50.5371 2.85853L50.4577 0H15.5418L15.4625 2.85853C15.3978 4.04488 14.7731 5.61003 14.1861 6.60941C12.4477 9.56903 9.46664 11.2884 6.23874 12.221L4.09717 12.8396V37.716C4.09717 52.1576 20.4665 60.3218 31.7764 65.4459L32.9998 66L34.2231 65.4459C45.533 60.3218 61.9024 52.1576 61.9024 37.716ZM20.594 5.52446H45.4056C45.776 6.90173 46.3734 8.25556 47.0497 9.40719C49.1864 13.0452 52.5323 15.4647 56.3777 16.9149V37.716C56.3777 48.7229 41.9542 55.8478 32.9998 59.9337C24.0454 55.8478 9.62178 48.7229 9.62178 37.716V16.9149C13.4672 15.4647 16.8131 13.0452 18.9498 9.40719C19.6261 8.25556 20.2235 6.90173 20.594 5.52446Z" fill="#095F90"/>
<g id="Group">
<path id="_304966184" fill-rule="evenodd" clip-rule="evenodd" d="M27.6658 28.6701V19.5523C27.6658 16.8088 30.251 14.9278 32.8426 14.9278H33.1569C35.7485 14.9278 38.3339 16.8088 38.3339 19.5523V28.6701H41.6486V19.5523C41.6486 15.1838 37.8293 11.6132 33.1569 11.6132H32.8426C28.1702 11.6132 24.3511 15.1838 24.3511 19.5523V28.6701H27.6658Z" fill="#095F90"/>
<path id="_304966160" fill-rule="evenodd" clip-rule="evenodd" d="M38.3338 27.4915H27.6656H24.351H21.0552V47.2941H44.9443V27.4915H41.6485H38.3338ZM32.9996 32.8924C34.2049 32.8924 35.1819 33.8694 35.1819 35.0747C35.1819 35.6898 34.9273 36.2455 34.5177 36.6421V41.8931H31.4815V36.6423C31.072 36.2455 30.8174 35.6899 30.8174 35.0747C30.8174 33.8694 31.7944 32.8924 32.9996 32.8924Z" fill="#095F90"/>
</g>
</g>
</g>
</g>
<defs>
<clipPath id="clip0_52_4722">
<rect width="66" height="66" fill="white"/>
</clipPath>
</defs>
</svg>
