<svg width="70" height="70" viewBox="0 0 70 70" fill="none" xmlns="http://www.w3.org/2000/svg">
<g id="mortarboard_1940611 1" clip-path="url(#clip0_52_4810)">
<path id="Vector" d="M68.6316 17.5484L35.6824 5.92305C35.2409 5.76719 34.7592 5.76719 34.3178 5.92305L1.36856 17.5484C0.549338 17.8374 0.00109539 18.6112 1.63885e-06 19.4799C-0.00109211 20.3487 0.545373 21.1237 1.36391 21.4146L34.3131 33.1283C34.5353 33.2073 34.7677 33.2468 35 33.2468C35.2324 33.2468 35.4647 33.2073 35.6869 33.1283L68.6361 21.4146C69.4546 21.1237 70.001 20.3487 70 19.4799C69.9989 18.6112 69.4507 17.8374 68.6316 17.5484Z" fill="#095F90"/>
<path id="Vector_2" d="M65.0742 44.9222V27.0339L60.9727 28.492V44.9222C59.7373 45.6333 58.9048 46.9656 58.9048 48.4934C58.9048 50.0211 59.7373 51.3536 60.9727 52.0647V62.143C60.9727 63.2756 61.8909 64.1938 63.0234 64.1938C64.156 64.1938 65.0742 63.2756 65.0742 62.143V52.0648C66.3096 51.3539 67.1421 50.0213 67.1421 48.4936C67.1421 46.9658 66.3097 45.6333 65.0742 44.9222Z" fill="#095F90"/>
<path id="Vector_3" d="M34.9998 37.3484C34.2959 37.3484 33.6026 37.2287 32.9391 36.9929L14.416 30.4078V39.4324C14.416 41.6402 16.7193 43.5074 21.2619 44.9818C25.2214 46.2669 30.1004 46.9747 34.9998 46.9747C39.8993 46.9747 44.7781 46.2669 48.7378 44.9818C53.2804 43.5074 55.5837 41.6402 55.5837 39.4324V30.4078L37.0607 36.9929C36.3971 37.2287 35.7038 37.3484 34.9998 37.3484Z" fill="#095F90"/>
</g>
<defs>
<clipPath id="clip0_52_4810">
<rect width="70" height="70" fill="white"/>
</clipPath>
</defs>
</svg>
