<svg width="60" height="60" viewBox="0 0 60 60" fill="none" xmlns="http://www.w3.org/2000/svg">
<g id="settings_348175 1" clip-path="url(#clip0_52_4735)">
<g id="Group">
<g id="Group_2">
<path id="Vector" d="M36.2173 24.4471L34.4497 26.2148L38.2325 29.9978L34.4497 33.7806L36.2173 35.5483L41.7678 29.9978L36.2173 24.4471Z" fill="#F2B829"/>
</g>
</g>
<g id="Group_3">
<g id="Group_4">
<path id="Vector_2" d="M25.5505 26.2148L23.7831 24.4471L18.2324 29.9978L23.7831 35.5483L25.5505 33.7806L21.7677 29.9978L25.5505 26.2148Z" fill="#F2B829"/>
</g>
</g>
<g id="Group_5">
<g id="Group_6">
<path id="Vector_3" d="M31.4932 22.9028L26.0952 37.7493L28.4447 38.6035L33.8427 23.7571L31.4932 22.9028Z" fill="#F2B829"/>
</g>
</g>
<g id="Group_7">
<g id="Group_8">
<path id="Vector_4" d="M60 34.8V25.1875L52.975 24.0126C52.4251 21.9001 51.5876 19.8876 50.4751 17.9876L54.6125 12.1875L47.8125 5.38751L42.0125 9.52505C40.1125 8.41256 38.0875 7.57505 35.975 7.02508L34.8125 0H25.1875L24.025 7.02496C21.9125 7.57492 19.8875 8.41243 17.9875 9.52492L12.1875 5.38751L5.38751 12.1875L9.52505 17.9875C8.41256 19.8875 7.57505 21.8999 7.02508 24.0124L0 25.1875V34.8L7.02496 35.975C7.57492 38.0875 8.41243 40.1125 9.52492 42.0125L5.38739 47.8125L12.1875 54.6125L17.9875 50.4625C19.8875 51.5876 21.9125 52.425 24.025 52.975L25.1875 60H34.8125L35.975 52.975C38.0875 52.4251 40.1125 51.5876 42.0125 50.4625L47.8125 54.6125L54.6125 47.8125L50.475 42.0125C51.5874 40.1125 52.425 38.0875 52.9749 35.975L60 34.8ZM30.0001 46.2478C21.0394 46.2478 13.7501 38.9576 13.7501 29.9978C13.7501 21.0378 21.0394 13.7478 30.0001 13.7478C38.9607 13.7478 46.2501 21.0378 46.2501 29.9978C46.2501 38.9576 38.9607 46.2478 30.0001 46.2478Z" fill="#F2B829"/>
</g>
</g>
</g>
<defs>
<clipPath id="clip0_52_4735">
<rect width="60" height="60" fill="white"/>
</clipPath>
</defs>
</svg>
