<svg width="66" height="66" viewBox="0 0 66 66" fill="none" xmlns="http://www.w3.org/2000/svg">
<g id="server_7573593 1">
<path id="Vector" d="M59.4007 50.0491V46.7491L55.77 46.2964C55.6063 45.7242 55.3832 45.1823 55.0994 44.6734L57.3421 41.7886L55.009 39.4555L52.1255 41.7008C51.6146 41.417 51.0728 41.1919 50.5012 41.0276L50.0498 37.3989H46.7498L46.295 41.0276C45.7235 41.1913 45.1816 41.417 44.6747 41.7008L41.7872 39.4555L39.4541 41.7886L41.7014 44.6734C41.4176 45.1823 41.1906 45.7242 41.0269 46.2964L37.4009 46.7491V50.0491L41.0269 50.5032C41.1906 51.0741 41.4183 51.616 41.7014 52.1248L39.4541 55.011L41.7872 57.3441L44.6747 55.0988C45.1823 55.3826 45.7235 55.6077 46.295 55.772L46.7504 59.4H50.0504L50.5019 55.7713C51.0734 55.6077 51.6153 55.3819 52.1261 55.0981L55.0097 57.3435L57.3428 55.0104L55.1001 52.1242C55.3839 51.6153 55.607 51.0735 55.7707 50.5026L59.4007 50.0491ZM48.4004 51.6991C46.5788 51.6991 45.1004 50.2221 45.1004 48.3991C45.1004 46.5775 46.5788 45.0991 48.4004 45.0991C50.2227 45.0991 51.7004 46.5775 51.7004 48.3991C51.7004 50.2221 50.2227 51.6991 48.4004 51.6991Z" fill="#095F90"/>
<path id="Vector_2" d="M55.0005 6.59998H52.8008V15.3998H48.4005V6.59998H44.001V15.3998H39.6008V6.59998H10.9997C8.58076 6.59998 6.6001 8.58064 6.6001 10.9995V15.3998C6.6001 17.8187 8.58076 19.8 10.9997 19.8V24.1995H55.0005V19.8C57.4201 19.8 59.4008 17.8187 59.4008 15.3998V10.9995C59.4008 8.58064 57.4201 6.59998 55.0005 6.59998ZM19.8001 15.3998H15.3999C14.1901 15.3998 13.2001 14.4091 13.2001 13.2C13.2001 11.9902 14.1901 10.9995 15.3999 10.9995H19.8001C21.0092 10.9995 21.9999 11.9902 21.9999 13.2C21.9999 14.4091 21.0092 15.3998 19.8001 15.3998ZM28.5999 15.3998C27.3861 15.3998 26.4001 14.4157 26.4001 13.2C26.4001 11.9836 27.3861 10.9995 28.5999 10.9995C29.8169 10.9995 30.801 11.9836 30.801 13.2C30.801 14.4157 29.8169 15.3998 28.5999 15.3998Z" fill="#095F90"/>
<path id="Vector_3" d="M33.177 46.2C34.2468 38.74 40.6449 33 48.4005 33C52.7103 33 56.6037 34.776 59.4008 37.6318V33C59.4008 30.5804 57.4201 28.5997 55.0005 28.5997H10.9997C8.58076 28.5997 6.6001 30.5804 6.6001 33V37.3995C6.6001 39.8191 8.58076 41.7991 10.9997 41.7991V46.2H33.177ZM28.5999 33C29.8169 33 30.801 33.9834 30.801 35.1991C30.801 36.4161 29.8169 37.3995 28.5999 37.3995C27.3861 37.3995 26.4001 36.4161 26.4001 35.1991C26.4001 33.9834 27.3861 33 28.5999 33ZM15.3999 33H19.8001C21.0092 33 21.9999 33.99 21.9999 35.1991C21.9999 36.4095 21.0092 37.3995 19.8001 37.3995H15.3999C14.1901 37.3995 13.2001 36.4095 13.2001 35.1991C13.2001 33.99 14.1901 33 15.3999 33Z" fill="#095F90"/>
</g>
</svg>
