<svg width="60" height="60" viewBox="0 0 60 60" fill="none" xmlns="http://www.w3.org/2000/svg">
<circle cx="30" cy="30" r="30" fill="#F2B829"/>
<g clip-path="url(#clip0_52_4536)">
<path d="M41.3772 27.6049C41.2667 27.5869 41.1549 27.5787 41.043 27.5801H21.995L22.4104 27.3869C22.8164 27.1948 23.1857 26.9333 23.5019 26.6142L28.8434 21.2727C29.5469 20.6011 29.6651 19.5208 29.1235 18.713C28.4932 17.8522 27.2844 17.6653 26.4235 18.2956C26.354 18.3465 26.2879 18.4021 26.2258 18.4619L16.5666 28.121C15.8117 28.875 15.8111 30.0982 16.5651 30.8531C16.5656 30.8535 16.5661 30.8541 16.5666 30.8546L26.2258 40.5138C26.9812 41.2671 28.2044 41.2654 28.9578 40.51C29.0171 40.4505 29.0724 40.3872 29.1235 40.3206C29.6651 39.5128 29.5469 38.4324 28.8434 37.7609L23.5115 32.4097C23.2281 32.126 22.9022 31.888 22.5456 31.7046L21.9661 31.4438H40.9367C41.9236 31.4804 42.7894 30.7911 42.9748 29.821C43.1456 28.7679 42.4303 27.7757 41.3772 27.6049Z" fill="white"/>
</g>
<defs>
<clipPath id="clip0_52_4536">
<rect width="27" height="27" fill="white" transform="translate(16 16)"/>
</clipPath>
</defs>
</svg>
