<svg width="82" height="55" viewBox="0 0 82 55" fill="none" xmlns="http://www.w3.org/2000/svg">
<g filter="url(#filter0_d_52_4865)">
<path d="M42.0557 24.2452C42.0206 27.0069 44.521 28.5481 46.4046 29.4643C48.34 30.4045 48.99 31.0074 48.9826 31.848C48.9678 33.1348 47.4388 33.7027 46.0076 33.7248C43.5109 33.7635 42.0594 33.0519 40.9052 32.5136L40.0058 36.715C41.1637 37.2478 43.3077 37.7124 45.5311 37.7327C50.7499 37.7327 54.1644 35.1609 54.1829 31.1733C54.2032 26.1127 47.171 25.8325 47.219 23.5705C47.2356 22.8847 47.8912 22.1528 49.3279 21.9666C50.0389 21.8726 52.002 21.8007 54.2272 22.8238L55.1007 18.7588C53.9041 18.3237 52.3658 17.9071 50.4507 17.9071C45.5385 17.9071 42.0834 20.5139 42.0557 24.2452ZM63.494 18.2574C62.5411 18.2574 61.7378 18.8123 61.3795 19.664L53.9244 37.434H59.1395L60.1773 34.571H66.5502L67.1523 37.434H71.7487L67.7377 18.2574H63.494ZM64.2234 23.4377L65.7285 30.6387H61.6066L64.2234 23.4377ZM35.7326 18.2574L31.6218 37.434H36.5913L40.7002 18.2574H35.7326ZM28.3809 18.2574L23.2083 31.3097L21.116 20.2115C20.8704 18.9727 19.9008 18.2574 18.8242 18.2574H10.3682L10.25 18.8141C11.9859 19.1902 13.9582 19.7967 15.153 20.4457C15.8843 20.842 16.0929 21.1886 16.333 22.1307L20.296 37.434H25.548L33.5996 18.2574H28.3809Z" fill="white"/>
</g>
<defs>
<filter id="filter0_d_52_4865" x="-5" y="-4" width="92" height="65" filterUnits="userSpaceOnUse" color-interpolation-filters="sRGB">
<feFlood flood-opacity="0" result="BackgroundImageFix"/>
<feColorMatrix in="SourceAlpha" type="matrix" values="0 0 0 0 0 0 0 0 0 0 0 0 0 0 0 0 0 0 127 0" result="hardAlpha"/>
<feOffset dy="1"/>
<feGaussianBlur stdDeviation="2.5"/>
<feComposite in2="hardAlpha" operator="out"/>
<feColorMatrix type="matrix" values="0 0 0 0 0 0 0 0 0 0 0 0 0 0 0 0 0 0 0.11 0"/>
<feBlend mode="normal" in2="BackgroundImageFix" result="effect1_dropShadow_52_4865"/>
<feBlend mode="normal" in="SourceGraphic" in2="effect1_dropShadow_52_4865" result="shape"/>
</filter>
</defs>
</svg>
