<svg id="Group_249" data-name="Group 249" xmlns="http://www.w3.org/2000/svg" xmlns:xlink="http://www.w3.org/1999/xlink" width="81.449" height="35.294" viewBox="0 0 81.449 35.294">
  <defs>
    <clipPath id="clip-path">
      <rect id="Rectangle_139" data-name="Rectangle 139" width="81.449" height="35.294" fill="none"/>
    </clipPath>
  </defs>
  <g id="Group_248" data-name="Group 248" clip-path="url(#clip-path)">
    <path id="Path_136" data-name="Path 136" d="M214.671,18.882c-.121-.8-.05-17.705.072-18.1H218.1V15.9a1.735,1.735,0,0,0,.4.107q3.353.009,6.707,0c.428,0,.655-.265.658-.736.005-1.209,0-2.418.006-3.628,0-.187.035-.374.051-.536a13.636,13.636,0,0,1,3.341-.022c-.011.231-.031.474-.032.718q0,2.8,0,5.594c0,.147,0,.294,0,.441a.989.989,0,0,1-.979,1.046c-.315.032-.633.053-.95.054-1.816,0-3.632,0-5.447,0q-3.131,0-6.262,0c-.3,0-.6-.037-.915-.057" transform="translate(-155.935 -0.566)" fill="#fff"/>
    <path id="Path_137" data-name="Path 137" d="M55,27.008c.2-.01.38-.027.558-.025,1.929.014,3.857.02,5.785.055a5.58,5.58,0,0,1,2.485.615,2.184,2.184,0,0,1,.752,3.275,2.489,2.489,0,0,1-1.118.909c-.1.041-.2.1-.38.187.184.076.288.123.4.163a9.046,9.046,0,0,1,1.108.42,2.408,2.408,0,0,1,1.231,2.928,2.936,2.936,0,0,1-1.278,1.734,5.884,5.884,0,0,1-3.185.936c-2.042.019-4.084.022-6.126.031A1.7,1.7,0,0,1,55,38.2Zm3.446,9.174c.483,0,.921,0,1.359,0a4.183,4.183,0,0,0,1.665-.25,1.363,1.363,0,0,0,.922-1.181,1.323,1.323,0,0,0-.857-1.193.9.9,0,0,0-.29-.091c-.9-.042-1.8-.076-2.708-.109-.027,0-.055.034-.091.058Zm0-4.8c.051.029.07.05.089.05a11.532,11.532,0,0,0,1.29,0,3.976,3.976,0,0,0,1.075-.268.982.982,0,0,0,.593-1.045,1.015,1.015,0,0,0-.786-.916,6.511,6.511,0,0,0-1.077-.125c-.391-.021-.783,0-1.184,0Z" transform="translate(-39.963 -19.606)" fill="#fff"/>
    <path id="Path_138" data-name="Path 138" d="M173.29,34.215a14.852,14.852,0,0,0-.209-2.079,1.836,1.836,0,0,0-1.374-1.4,5.521,5.521,0,0,0-1.548-.185c-.892,0-1.785,0-2.678,0a2.654,2.654,0,0,1-.367-.014c-.474-.067-.57-.169-.574-.645q-.01-1.166,0-2.332c0-.4.118-.521.523-.525,1.64-.016,3.28,0,4.919-.036a5.268,5.268,0,0,1,2.587.607,5.043,5.043,0,0,1,2.061,1.97c.023.038.039.08.063.118a3.947,3.947,0,0,1,.565,2.345c-.05,1.676-.028,3.355-.021,5.032a.669.669,0,0,1-.34.615,2.665,2.665,0,0,1-1.677.428c-2.421-.014-4.842-.005-7.263-.007-.268,0-.536,0-.8-.024a.631.631,0,0,1-.688-.594,2.244,2.244,0,0,1-.059-.461q-.012-.917,0-1.833a2.012,2.012,0,0,1,.059-.46c.095-.388.229-.5.632-.5.859-.007,1.718-.008,2.577-.008,1.071,0,2.142,0,3.213,0,.1,0,.2-.009.4-.019" transform="translate(-120.907 -19.619)" fill="#fff"/>
    <path id="Path_139" data-name="Path 139" d="M101.521,27.117h3.736l4.591,11.2H106.3l-.843-2.277h-4.3l-.871,2.281H96.909l4.612-11.2m3.169,6.9-1.327-3.641a17.132,17.132,0,0,0-1.379,3.641Z" transform="translate(-70.414 -19.703)" fill="#fff"/>
    <path id="Path_140" data-name="Path 140" d="M2.722,38.336l4.6-11.178h3.737L15.644,38.34H12.091l-.854-2.248h-4.3l-.813,2.243Zm4.967-4.3h2.829L9.149,30.374l-.074-.008L7.689,34.033" transform="translate(-1.978 -19.733)" fill="#fff"/>
    <path id="Path_141" data-name="Path 141" d="M280.225,11.7H283.6c.018.237.053.478.052.719q-.025,6.355-.058,12.71c0,.463,0,.927,0,1.39,0,.111-.011.222-.016.318a14.563,14.563,0,0,1-3.321.07c-.108-.226-.145-14.762-.032-15.207" transform="translate(-203.562 -8.504)" fill="#fff"/>
    <rect id="Rectangle_129" data-name="Rectangle 129" width="3.538" height="11.197" transform="translate(40.781 7.407)" fill="#fff"/>
    <path id="Path_142" data-name="Path 142" d="M228.242,92.942a2.268,2.268,0,0,1,1.854.655,2.7,2.7,0,0,1,.45,1.884h4.178a3.325,3.325,0,0,1,.243-.773,3.451,3.451,0,0,1,.606-.589V93.027a20.926,20.926,0,0,1,2.17.017,1.22,1.22,0,0,1,1,1.311c.008.36,0,.721,0,1.115h1.917a2.924,2.924,0,0,0-.864-1.281c.139-.349.277-.712.433-1.068a.256.256,0,0,1,.2-.109,8.968,8.968,0,0,1,1.391.024.962.962,0,0,1,.772,1.355,4.31,4.31,0,0,1-.359.725c-.057.106-.134.2-.239.358h1.8a7.289,7.289,0,0,1,.007-.869,3.968,3.968,0,0,1,.215-.975,1,1,0,0,1,.911-.619c.472-.034.949-.008,1.461-.008a2.293,2.293,0,0,1,.045.319c0,.769.011,1.537,0,2.306a2.712,2.712,0,0,1-.119.7.959.959,0,0,1-.747.72c-.562.1-1.139.1-1.738.152-.018-.285-.031-.494-.046-.735-.133-.007-.254-.016-.375-.019-.68-.02-1.36-.048-2.04-.054-.339,0-.679.051-1.019.051q-6.181.005-12.362,0h-.379v-.924h2a1.592,1.592,0,0,0-.218-1.224,1.512,1.512,0,0,0-1.146-.4Zm16.508,3.277c.5.055.673-.054.7-.49.039-.538.029-1.08.033-1.62a.483.483,0,0,0-.068-.17c-.4-.03-.65.093-.661.373-.024.628-.007,1.257-.007,1.907m-6.943-.744c0-.255,0-.456,0-.656-.01-.813-.062-.874-.877-.916a2.781,2.781,0,0,0-.52.069l-.058.122a1.413,1.413,0,0,1,.921,1.419l.534-.037m4.016-1.392c-.338-.154-.576-.284-.882-.133.1.17.183.3.259.437s.149.282.223.424l.117.005.283-.733m-5.429,1.35-.25-.449-.388.055v.493l.638-.1" transform="translate(-165.381 -67.532)" fill="#fff"/>
    <path id="Path_143" data-name="Path 143" d="M144.545,92.651h-.883c-.35-1.458,1.57-3.516,3.21-3.389V91.7h7.115c.168-.577-.032-.86-.612-.864-.736,0-1.472,0-2.246,0V89.219c.125-.089.282-.2.435-.309.43-.314.847-.647,1.293-.937a1.515,1.515,0,0,1,.65-.217,5.18,5.18,0,0,1,1.041.025,28.625,28.625,0,0,1-2.523,1.952l.059.126a2.642,2.642,0,0,0,.312.04c.374.005.749,0,1.124.005a1.345,1.345,0,0,1,1.459,1.432c0,.11.017.22.029.361h1.123v-2.51h.923V91.7h2.441V90.459h.917v1.236h1.081V89.847h.923V91.7h1V89.186h.951v3.451H145.941v-2.3a3.2,3.2,0,0,0-1.4,2.318" transform="translate(-104.355 -63.751)" fill="#fff"/>
    <path id="Path_144" data-name="Path 144" d="M55.134,91.8H56.3V87.858h.914v3.936h1.134V87.858h.932v4.863H49.265v-.909H51.29c-.017-.463.077-.874-.225-1.223a1.47,1.47,0,0,0-1.152-.371v-.963a2.275,2.275,0,0,1,1.863.644,2.56,2.56,0,0,1,.5,1.893h1.952V89.283h.905Z" transform="translate(-35.796 -63.838)" fill="#fff"/>
    <path id="Path_145" data-name="Path 145" d="M2.776,93.268l.927.06c0,.287,0,.564,0,.841,0,.237-.023.475-.013.711.019.462.159.6.628.606.635.009,1.27,0,1.906,0h1.85V92.958h.906v2.508H10.94V92.916l.918.048v3.441c-.113.006-.233.019-.352.019q-3.591,0-7.181,0a1.422,1.422,0,0,1-1.545-1.48c-.015-.538,0-1.077,0-1.675" transform="translate(-2.014 -67.513)" fill="#fff"/>
    <path id="Path_146" data-name="Path 146" d="M113.479,92.761H107.45V87.9h.874v3.921h4.236v-2.55l.919.05Z" transform="translate(-78.073 -63.871)" fill="#fff"/>
    <path id="Path_147" data-name="Path 147" d="M99.176,118.522l.507-2.614h.828l-.976,3.521-.838.037c-.1-.407-.2-.8-.291-1.2-.07-.319-.114-.644-.183-.963a3.313,3.313,0,0,0-.171-.437l-.559,2.566h-.879l-.892-3.515h.846c.069.374.148.766.213,1.16.06.367.1.738.163,1.1a1.94,1.94,0,0,0,.139.361h.1l.52-2.634h.89l.476,2.613.1,0" transform="translate(-69.552 -84.218)" fill="#fff"/>
    <path id="Path_148" data-name="Path 148" d="M251.034,115.756h.656v3.455c-.509.2-.79.11-1.037-.326-.361-.638-.712-1.283-1.071-1.923a.335.335,0,0,0-.212-.148v2.353c-.26.22-.407.227-.718.026v-3.388c.589-.207.91-.107,1.19.39.326.58.635,1.171.953,1.756.051.1.107.188.161.282l.077-.019Z" transform="translate(-180.671 -84.071)" fill="#fff"/>
    <path id="Path_149" data-name="Path 149" d="M59.906,116.787v2.481l-.7.057v-3.511c.6-.213.905-.106,1.184.4.325.594.645,1.19.97,1.784a.5.5,0,0,0,.24.221v-2.454h.639v3.457c-.565.181-.831.1-1.1-.374-.349-.618-.674-1.249-1.013-1.873a2.106,2.106,0,0,0-.146-.208l-.078.016" transform="translate(-43.019 -84.075)" fill="#fff"/>
    <path id="Path_150" data-name="Path 150" d="M269.043,115.8a3.452,3.452,0,0,1,.714.014.617.617,0,0,1,.334.3c.383.69.747,1.392,1.119,2.088a1.236,1.236,0,0,0,.093.132l.1,0c.008-.163.026-.326.023-.488-.012-.6-.032-1.2-.045-1.793a1.6,1.6,0,0,1,.03-.226h.628v3.507H271.2l-1.453-2.562-.085.026v2.567l-.557.038a1.227,1.227,0,0,1-.1-.327c-.007-1.04,0-2.079,0-3.119a.819.819,0,0,1,.043-.152" transform="translate(-195.454 -84.131)" fill="#fff"/>
    <path id="Path_151" data-name="Path 151" d="M40.524,119.336v-3.518a4.071,4.071,0,0,1,.549-.04,9.021,9.021,0,0,1,1.543.141,1.555,1.555,0,0,1,1.2,1.7,1.693,1.693,0,0,1-1.237,1.661,2.549,2.549,0,0,1-.638.055c-.448.008-.9,0-1.418,0m.764-.553a1.174,1.174,0,0,0,1.31-.236A1.515,1.515,0,0,0,42.8,116.9a1.3,1.3,0,0,0-1.482-.522,21.3,21.3,0,0,0-.033,2.406" transform="translate(-29.445 -84.123)" fill="#fff"/>
    <path id="Path_152" data-name="Path 152" d="M14.382,119.266a.771.771,0,0,1-.078-.252c-.009-1-.009-2.009-.008-3.013a1.558,1.558,0,0,1,.047-.253,5.5,5.5,0,0,1,1.89.045.8.8,0,0,1,.333,1.465c-.036.027-.074.051-.149.1a1.821,1.821,0,0,0,.222.263.777.777,0,0,1,.362.9.943.943,0,0,1-.871.737c-.553.016-1.107,0-1.747,0m.706-1.439v.934a.916.916,0,0,0,.989-.092.561.561,0,0,0,0-.689.9.9,0,0,0-.989-.152m-.023-.758a.791.791,0,0,0,.907-.066.4.4,0,0,0,.089-.521.778.778,0,0,0-.762-.249c-.4.184-.168.547-.234.837" transform="translate(-10.387 -84.06)" fill="#fff"/>
    <path id="Path_153" data-name="Path 153" d="M171.338,119.239a1.64,1.64,0,0,1-1.762-1.689,1.878,1.878,0,0,1,1.882-1.976,1.747,1.747,0,0,1,1.735,1.866,1.674,1.674,0,0,1-1.855,1.8m-.913-1.854a6.458,6.458,0,0,0,.139.694.935.935,0,0,0,.843.677.964.964,0,0,0,.862-.662,1.707,1.707,0,0,0-.164-1.5.78.78,0,0,0-1.391-.011,3.8,3.8,0,0,0-.288.8" transform="translate(-123.214 -83.976)" fill="#fff"/>
    <path id="Path_154" data-name="Path 154" d="M118.055,117.481a1.513,1.513,0,0,1-.721,1.553,2.17,2.17,0,0,1-1.99.092,1.5,1.5,0,0,1-.844-1.473,1.79,1.79,0,0,1,3.554-.426c.007.1,0,.2,0,.254m-2.794,0a4.865,4.865,0,0,0,.233.826.867.867,0,0,0,.857.5.811.811,0,0,0,.747-.593,1.7,1.7,0,0,0-.129-1.558.778.778,0,0,0-1.384-.022,4.692,4.692,0,0,0-.323.845" transform="translate(-83.195 -84.03)" fill="#fff"/>
    <path id="Path_155" data-name="Path 155" d="M216.751,115.763a5.681,5.681,0,0,1,1.979.075.776.776,0,0,1,.6.67.9.9,0,0,1-.341.963.91.91,0,0,0-.147.136l.626,1.63-.682.11a3.1,3.1,0,0,1-.242-.418c-.075-.187-.1-.394-.17-.583-.132-.356-.438-.484-.884-.339v1.272h-.734Zm.756,1.558a.779.779,0,0,0,.931-.16.538.538,0,0,0,.014-.683.79.79,0,0,0-.946-.1Z" transform="translate(-157.492 -84.078)" fill="#fff"/>
    <path id="Path_156" data-name="Path 156" d="M132.088,117.667a2.689,2.689,0,0,1,.636,1.608l-.644.055c-.072-.16-.161-.332-.228-.512s-.089-.35-.155-.517c-.129-.326-.434-.445-.87-.313v1.151a.574.574,0,0,1-.765.086v-3.478a5.341,5.341,0,0,1,2.026.1.926.926,0,0,1,.3,1.558c-.079.078-.167.147-.294.257m-1.278-.367a.815.815,0,0,0,1.01-.173.5.5,0,0,0-.046-.677.721.721,0,0,0-.965-.047Z" transform="translate(-94.503 -84.07)" fill="#fff"/>
    <path id="Path_157" data-name="Path 157" d="M185.2,115.763a5.032,5.032,0,0,1,1.94.086.879.879,0,0,1,.676.724.848.848,0,0,1-.44.973.914.914,0,0,0-.133.115,2.483,2.483,0,0,1,.628,1.629h-.7c-.086-.262-.172-.513-.251-.767-.152-.483-.318-.6-.922-.6-.017.449-.035.907-.054,1.378H185.2c-.025-1.163-.02-2.325,0-3.542m.84,1.629a.791.791,0,0,0,.913-.294.634.634,0,0,0,.012-.56.858.858,0,0,0-.9-.28,1.816,1.816,0,0,0-.025,1.134" transform="translate(-134.555 -84.077)" fill="#fff"/>
    <path id="Path_158" data-name="Path 158" d="M285.91,117.332v1.789a.953.953,0,0,1-.3.121,10.843,10.843,0,0,1-1.66-.006A1.721,1.721,0,0,1,283,116.46a2.325,2.325,0,0,1,2.04-.785,6.371,6.371,0,0,1,.752.125l-.1.55c-.139,0-.257.006-.373,0a4.689,4.689,0,0,0-.707-.048,1.21,1.21,0,0,0-1.128,1.355,1.241,1.241,0,0,0,1.339,1.162c.267,0,.408-.113.392-.387-.01-.164-.029-.327-.046-.5l-.537-.063-.08-.532Z" transform="translate(-205.351 -84.046)" fill="#fff"/>
    <path id="Path_159" data-name="Path 159" d="M142.546,115.842h.642c.231.519-.1,1.056.16,1.616.1-.135.174-.212.231-.3.2-.312.4-.627.6-.941.266-.419.655-.466,1.193-.357l-1.185,1.5,1.163,1.9c-.472.2-.755.134-.986-.224-.165-.256-.308-.527-.467-.787-.068-.111-.155-.211-.226-.305-.335.031-.4.236-.406.479-.006.311,0,.622,0,.954h-.721Z" transform="translate(-103.574 -84.148)" fill="#fff"/>
    <path id="Path_160" data-name="Path 160" d="M96.895,96.489H93.849V95.57h2.022c.014-.466.119-.932-.248-1.218a5.272,5.272,0,0,0-1.113-.509v-.783A1.876,1.876,0,0,1,96.8,94.587c.086.611.068,1.237.1,1.9" transform="translate(-68.191 -67.597)" fill="#fff"/>
    <path id="Path_161" data-name="Path 161" d="M27.178,115.861H28.2L29.34,119.4h-.828l-.268-.747c-.335-.206-.71-.095-1.106-.123l-.4.905-.693-.032a34.437,34.437,0,0,1,1.13-3.539m.544.734-.174,0-.331,1.4h.8a4.788,4.788,0,0,0-.294-1.394" transform="translate(-18.927 -84.185)" fill="#fff"/>
    <path id="Path_162" data-name="Path 162" d="M231.9,119.431h-.818c-.057-.133-.116-.263-.168-.4a1.341,1.341,0,0,0-.082-.257c-.242-.365-.627-.138-.942-.206-.2-.044-.3.119-.354.295-.066.206-.137.411-.2.591h-.638a14.39,14.39,0,0,1,1.074-3.539h.983l1.145,3.512m-1.365-1.4a1.874,1.874,0,0,0-.449-1.412l-.314,1.412Z" transform="translate(-166.166 -84.227)" fill="#fff"/>
    <path id="Path_163" data-name="Path 163" d="M1.024,115.769c1.084-.136,1.086-.136,1.379.782.257.806.509,1.614.759,2.422a2.792,2.792,0,0,1,.055.3H2.475c-.071-.187-.146-.361-.2-.541a.4.4,0,0,0-.421-.32c-.249,0-.5,0-.8,0l-.395.908L0,119.244l1.024-3.475m.535.618-.1.023-.328,1.453h.91l-.478-1.476" transform="translate(0 -84.071)" fill="#fff"/>
    <path id="Path_164" data-name="Path 164" d="M74.273,117.993c-.014.307-.027.595-.042.946h1.532v.51H73.481a.878.878,0,0,1-.071-.258c0-1.039,0-2.079,0-3.119a.7.7,0,0,1,.031-.129h2.249v.579H74.278v.814H75.61v.657Z" transform="translate(-53.338 -84.244)" fill="#fff"/>
    <path id="Path_165" data-name="Path 165" d="M247.374,71.37a1.229,1.229,0,0,1,1.282,1.249,1.258,1.258,0,0,1-1.292,1.283,1.268,1.268,0,1,1,.01-2.532" transform="translate(-178.769 -51.858)" fill="#fff"/>
    <path id="Path_166" data-name="Path 166" d="M40.454,97.957V97.2c.042-.035.057-.058.076-.062.61-.141.669-.212.67-.846q0-1.406,0-2.811v-.4h.926c.008.115.023.224.023.334,0,.994.01,1.987,0,2.981a2.7,2.7,0,0,1-.116.8,1.318,1.318,0,0,1-1.579.769" transform="translate(-29.394 -67.63)" fill="#fff"/>
    <path id="Path_167" data-name="Path 167" d="M161.41,117.442v.586H160.04v1.412h-.628a17.594,17.594,0,0,1-.061-3.533h2.175v.588H160.1v.947Z" transform="translate(-115.741 -84.219)" fill="#fff"/>
    <rect id="Rectangle_130" data-name="Rectangle 130" width="0.898" height="4.84" transform="translate(36.148 24.04)" fill="#fff"/>
    <path id="Path_168" data-name="Path 168" d="M86.322,115.929v.565l-.967.058v2.909H84.6a2.609,2.609,0,0,1-.058-.387c-.006-.689,0-1.378,0-2.068,0-.133-.011-.267-.02-.45l-.869-.059-.169-.569Z" transform="translate(-60.655 -84.234)" fill="#fff"/>
    <path id="Path_169" data-name="Path 169" d="M206.951,115.941c.09.492.017.585-.412.586h-.506a3.454,3.454,0,0,0-.055.412c-.006.7,0,1.4-.007,2.1a3.124,3.124,0,0,1-.051.391h-.762v-2.808c-.351-.246-1.1.2-.948-.681Z" transform="translate(-148.365 -84.243)" fill="#fff"/>
    <path id="Path_170" data-name="Path 170" d="M278.458,1.708c-.011-.2-.019-.348-.03-.542a4.711,4.711,0,0,1,.487-.023,2.434,2.434,0,0,0,1.817-.605,2.829,2.829,0,0,1,2.8-.323c.1.026.185.227.219.361a1.119,1.119,0,0,1-.062.393c-.267-.038-.531-.078-.8-.113a2.66,2.66,0,0,0-2.2.535,2.365,2.365,0,0,1-2.233.318" transform="translate(-202.307 0)" fill="#fff"/>
    <path id="Path_171" data-name="Path 171" d="M242.625,115.875h.733v3.564h-.694a23.927,23.927,0,0,1-.039-3.564" transform="translate(-176.252 -84.195)" fill="#fff"/>
    <path id="Path_172" data-name="Path 172" d="M263.068,115.87h.694V119.4h-.626a1.109,1.109,0,0,1-.107-.327c-.009-1.015-.005-2.031,0-3.046a.8.8,0,0,1,.043-.162" transform="translate(-191.113 -84.191)" fill="#fff"/>
    <path id="Path_173" data-name="Path 173" d="M207.5,88.875h-.965v-.9h.922c.014.3.027.579.042.9" transform="translate(-150.067 -63.924)" fill="#fff"/>
    <path id="Path_174" data-name="Path 174" d="M28.811,108.77h-.956v-.876h.913c.013.274.027.556.042.876" transform="translate(-20.24 -78.396)" fill="#fff"/>
    <rect id="Rectangle_131" data-name="Rectangle 131" width="0.877" height="0.887" transform="translate(51.813 29.498)" fill="#fff"/>
    <rect id="Rectangle_132" data-name="Rectangle 132" width="0.899" height="0.864" transform="translate(34.507 29.494)" fill="#fff"/>
    <rect id="Rectangle_133" data-name="Rectangle 133" width="0.902" height="0.862" transform="translate(3.429 29.502)" fill="#fff"/>
    <rect id="Rectangle_134" data-name="Rectangle 134" width="0.868" height="0.893" transform="translate(57.826 24.063)" fill="#fff"/>
    <rect id="Rectangle_135" data-name="Rectangle 135" width="0.869" height="0.866" transform="translate(8.973 29.494)" fill="#fff"/>
    <rect id="Rectangle_136" data-name="Rectangle 136" width="0.868" height="0.846" transform="translate(18.457 24.027)" fill="#fff"/>
    <rect id="Rectangle_137" data-name="Rectangle 137" width="0.836" height="0.909" transform="translate(57.188 22.739)" fill="#fff"/>
    <rect id="Rectangle_138" data-name="Rectangle 138" width="0.852" height="0.851" transform="translate(17.131 24.03)" fill="#fff"/>
    <path id="Path_175" data-name="Path 175" d="M131.787,84.806l.022-.357h1.1v.38l-.706-.04,0-.046-.416.063" transform="translate(-95.757 -61.361)" fill="#fff"/>
  </g>
</svg>
