<svg width="60" height="60" viewBox="0 0 60 60" fill="none" xmlns="http://www.w3.org/2000/svg">
<g id="team-management_10382204 1">
<path id="Vector" fill-rule="evenodd" clip-rule="evenodd" d="M30.1383 14.6976C38.7246 14.6976 45.7113 21.6844 45.7113 30.2707C45.7113 30.4734 45.7055 30.6773 45.6973 30.8812C46.35 30.6656 47.0719 30.5613 47.8805 30.5613C49.7227 30.5613 51.1184 31.1086 52.2727 32.2828C52.7941 32.8148 53.1867 33.5297 53.4375 34.3406L55.8949 34.2269C56.3004 34.2082 56.6168 33.8765 56.6168 33.4711V27.0715C56.6168 26.666 56.3004 26.3344 55.8949 26.3156L52.0289 26.1363C51.0867 26.0929 50.3086 25.4777 50.0496 24.5707C49.6184 23.0636 49.0125 21.6023 48.2484 20.2277C47.7891 19.4027 47.9039 18.4172 48.5402 17.7187L51.1488 14.857C51.4219 14.557 51.4113 14.0988 51.1242 13.8117L46.5996 9.28591C46.3125 8.99998 45.8543 8.98826 45.5543 9.26248L42.6926 11.8699C41.9941 12.5062 41.0098 12.6211 40.1836 12.1617C38.809 11.3976 37.3477 10.7918 35.8395 10.3605C34.9312 10.1004 34.3172 9.32341 34.2727 8.38123L34.0934 4.51521C34.0746 4.10974 33.7418 3.79333 33.3375 3.79333H26.9379C26.5324 3.79333 26.2008 4.10974 26.182 4.51521L26.0027 8.38123C25.9582 9.32341 25.3441 10.1004 24.4371 10.3605C22.9289 10.7918 21.4676 11.3976 20.093 12.1617C19.2668 12.6211 18.2824 12.5062 17.584 11.8699L14.7211 9.2613C14.4211 8.98826 13.9629 8.9988 13.6758 9.28474L9.15 13.8105C8.86289 14.0965 8.85234 14.5558 9.12539 14.8558L11.734 17.7176C12.3703 18.416 12.4852 19.4004 12.0258 20.2265C11.2617 21.6 10.6559 23.0613 10.2246 24.5695C9.96562 25.4765 9.18867 26.0918 8.24531 26.1351L4.3793 26.3144C3.975 26.3332 3.65742 26.6648 3.65742 27.0703V33.4699C3.65742 33.8754 3.97383 34.207 4.3793 34.2258L6.56484 34.3277C6.8168 33.5215 7.20703 32.8113 7.72617 32.2816C8.88047 31.1074 10.2785 30.5601 12.1266 30.5601C13.0477 30.5601 13.8574 30.6972 14.5805 30.9808C14.5699 30.7441 14.5629 30.5074 14.5629 30.2695C14.5652 21.6844 21.5508 14.6976 30.1383 14.6976ZM43.8867 39.1922C43.0395 37.1707 43.3125 34.459 44.482 33.2683C45.3785 32.3566 46.3945 31.9676 47.8793 31.9676C49.3383 31.9676 50.3836 32.3683 51.2684 33.2683C52.4379 34.459 52.7109 37.1707 51.8637 39.1922C51.3445 40.4308 50.2313 41.9074 47.8758 41.9074C45.5203 41.9074 44.407 40.4308 43.8867 39.1922ZM44.7047 46.2961C45.9164 48.2707 46.5539 50.516 46.5539 52.8574V56.209H56.0156C56.7914 56.209 57.4219 55.5785 57.4219 54.8027V53.8418C57.4219 49.6629 54.2824 46.2633 50.4223 46.2633H45.3281C45.1195 46.2633 44.9121 46.2761 44.7047 46.2961ZM29.4902 45.975L28.2082 50.6543L30 53.9824L31.8141 50.6144L30.518 45.9855C30.2883 45.1652 30.4348 44.3308 30.9293 43.6383L32.3496 41.6508H27.6504L29.0742 43.6441C29.5664 44.3297 29.7141 45.1582 29.4902 45.975ZM22.1438 42.3562L29.3801 55.7976C29.5031 56.025 29.7398 56.1679 29.9988 56.1679C30.2578 56.1679 30.4957 56.0262 30.6176 55.7976L37.8539 42.3562C42.2391 43.9922 45.1465 48.1418 45.1465 52.8574V56.209H40.0242V52.4929C40.0242 52.1051 39.709 51.7898 39.3211 51.7898C38.932 51.7898 38.618 52.1051 38.618 52.4929V56.209H21.3797V52.4929C21.3797 52.1051 21.0645 51.7898 20.6766 51.7898C20.2887 51.7898 19.9734 52.1051 19.9734 52.4929V56.209H14.8512V52.8574C14.8523 48.1418 17.7586 43.9922 22.1438 42.3562ZM9.57773 46.2633C5.71875 46.2633 2.57812 49.6629 2.57812 53.8418V54.8027C2.57812 55.5773 3.20859 56.209 3.98438 56.209H13.4461V52.8574C13.4461 50.516 14.0836 48.2707 15.2953 46.2961C15.0879 46.2761 14.8805 46.2633 14.6719 46.2633H9.57773ZM16.1133 39.1933C15.5941 40.432 14.4809 41.9086 12.1254 41.9086C9.76875 41.9086 8.65547 40.432 8.13633 39.1933C7.28906 37.1719 7.56211 34.4601 8.73164 33.2695C9.62813 32.3578 10.6441 31.9687 12.1301 31.9687C13.5891 31.9687 14.6355 32.3695 15.5191 33.2695C16.6875 34.459 16.9605 37.1719 16.1133 39.1933ZM35.1469 24.6527C36.9539 26.4902 37.3699 30.4992 36.075 33.5871C35.4281 35.1304 33.7793 37.7179 30.0012 37.7179C26.2219 37.7179 24.5719 35.1293 23.925 33.5859C22.6301 30.498 23.0473 26.4914 24.8543 24.6527C26.2008 23.2828 27.7898 22.6711 30.007 22.6711C32.2137 22.6711 33.7992 23.2816 35.1469 24.6527Z" fill="#F2B829"/>
</g>
</svg>
