<svg width="61" height="61" viewBox="0 0 61 61" fill="none" xmlns="http://www.w3.org/2000/svg">
<g id="network_149724 1" clip-path="url(#clip0_52_4750)">
<path id="Vector" d="M54.3455 0C50.6755 0 47.6909 2.98456 47.6909 6.65455C47.6909 7.80245 47.9826 8.88271 48.4961 9.82654L37.5949 20.7278C36.092 19.5577 34.211 18.8545 32.1636 18.8545C30.1163 18.8545 28.2352 19.5577 26.7313 20.7267L18.2257 12.2211C18.6161 11.5612 18.8545 10.8025 18.8545 9.98182C18.8545 7.53516 16.8648 5.54545 14.4182 5.54545C11.9715 5.54545 9.98182 7.53516 9.98182 9.98182C9.98182 12.4285 11.9715 14.4182 14.4182 14.4182C15.2389 14.4182 15.9975 14.1797 16.6574 13.7893L25.1631 22.2949C23.9941 23.7989 23.2909 25.6799 23.2909 27.7273C23.2909 29.7747 23.9941 31.6557 25.1631 33.1585L11.1175 47.2051C9.93524 46.1326 8.37253 45.4727 6.65455 45.4727C2.98456 45.4727 0 48.4573 0 52.1273C0 55.7973 2.98456 58.7818 6.65455 58.7818C10.3245 58.7818 13.3091 55.7973 13.3091 52.1273C13.3091 50.9794 13.0174 49.8991 12.5039 48.9553L26.7324 34.7267C27.9591 35.6806 29.4386 36.3194 31.0557 36.5224V47.7907C27.9136 48.3209 25.5102 51.0537 25.5102 54.3455C25.5102 58.0154 28.4948 61 32.1647 61C35.8347 61 38.8193 58.0154 38.8193 54.3455C38.8193 51.0548 36.4159 48.322 33.2738 47.7907V36.5224C34.8909 36.3194 36.3704 35.6806 37.5971 34.7267L46.1027 43.2324C45.7112 43.8934 45.4727 44.652 45.4727 45.4727C45.4727 47.9194 47.4624 49.9091 49.9091 49.9091C52.3557 49.9091 54.3455 47.9194 54.3455 45.4727C54.3455 43.0261 52.3557 41.0364 49.9091 41.0364C49.0884 41.0364 48.3297 41.2748 47.6698 41.6652L39.1642 33.1596C40.3332 31.6557 41.0364 29.7747 41.0364 27.7273C41.0364 25.6799 40.3332 23.7989 39.1642 22.2961L49.8836 11.5767C51.0648 12.6492 52.6275 13.3091 54.3455 13.3091C58.0154 13.3091 61 10.3245 61 6.65455C61 2.98456 58.0154 0 54.3455 0Z" fill="#F2B829"/>
</g>
<defs>
<clipPath id="clip0_52_4750">
<rect width="61" height="61" fill="white"/>
</clipPath>
</defs>
</svg>
