<svg width="65" height="65" viewBox="0 0 65 65" fill="none" xmlns="http://www.w3.org/2000/svg">
<g id="internet_564926 1" clip-path="url(#clip0_534_4347)">
<g id="Group">
<g id="Group_2">
<path id="Vector" d="M60.6531 26.9534C58.6897 17.0348 51.4998 8.9582 42.1264 5.6239C42.128 5.69753 42.1482 5.76596 42.1482 5.83985C42.1482 7.11471 41.8872 8.32788 41.4307 9.44011C49.1589 12.4093 55.0861 19.1101 56.8425 27.3376C54.9121 28.2553 53.574 30.224 53.574 32.5C53.574 35.6502 56.1367 38.2129 59.2869 38.2129C62.4371 38.2129 64.9998 35.6502 64.9998 32.5C64.9998 29.8207 63.1456 27.5675 60.6531 26.9534Z" fill="#F2B829"/>
</g>
</g>
<g id="Group_3">
<g id="Group_4">
<path id="Vector_2" d="M32.5 19.1699C31.7852 19.1699 30.4092 21.1551 29.521 24.8828H35.4789C34.5907 21.1551 33.2147 19.1699 32.5 19.1699Z" fill="#F2B829"/>
</g>
</g>
<g id="Group_5">
<g id="Group_6">
<path id="Vector_3" d="M36.1004 28.6914H28.8997C28.7788 29.87 28.6914 31.1146 28.6914 32.5C28.6914 33.8854 28.7788 35.1301 28.8997 36.3086H36.1004C36.2212 35.1301 36.3087 33.8854 36.3087 32.5C36.3087 31.1146 36.2214 29.87 36.1004 28.6914Z" fill="#F2B829"/>
</g>
</g>
<g id="Group_7">
<g id="Group_8">
<path id="Vector_4" d="M25.079 28.6914H15.8215C15.5405 29.9207 15.3613 31.1868 15.3613 32.5C15.3613 33.8132 15.5406 35.0793 15.8215 36.3086H25.079C24.9613 35.0529 24.8828 33.7806 24.8828 32.5C24.8828 31.2194 24.9614 29.9472 25.079 28.6914Z" fill="#F2B829"/>
</g>
</g>
<g id="Group_9">
<g id="Group_10">
<path id="Vector_5" d="M49.1783 28.6914H39.9209C40.0386 29.9472 40.117 31.2194 40.117 32.5C40.117 33.7806 40.0385 35.0529 39.9209 36.3086H49.1783C49.4593 35.0793 49.6385 33.8132 49.6385 32.5C49.6385 31.1868 49.4593 29.9207 49.1783 28.6914Z" fill="#F2B829"/>
</g>
</g>
<g id="Group_11">
<g id="Group_12">
<path id="Vector_6" d="M29.521 40.1172C30.4092 43.8449 31.7852 45.8301 32.5 45.8301C33.2147 45.8301 34.5907 43.8449 35.4789 40.1172H29.521Z" fill="#F2B829"/>
</g>
</g>
<g id="Group_13">
<g id="Group_14">
<path id="Vector_7" d="M39.3489 40.1172C38.2487 45.4813 35.9599 49.6387 32.5 49.6387C39.2017 49.6387 44.9563 45.7359 47.7722 40.1172H39.3489Z" fill="#F2B829"/>
</g>
</g>
<g id="Group_15">
<g id="Group_16">
<path id="Vector_8" d="M32.5 15.3613C35.9599 15.3613 38.2489 19.5189 39.3491 24.8828H47.7722C44.9563 19.2641 39.2017 15.3613 32.5 15.3613Z" fill="#F2B829"/>
</g>
</g>
<g id="Group_17">
<g id="Group_18">
<path id="Vector_9" d="M25.6514 40.1172H17.228C20.044 45.7359 25.7985 49.6387 32.5002 49.6387C29.0404 49.6387 26.7515 45.4813 25.6514 40.1172Z" fill="#F2B829"/>
</g>
</g>
<g id="Group_19">
<g id="Group_20">
<path id="Vector_10" d="M17.228 24.8828H25.6511C26.7514 19.5189 29.0404 15.3613 32.5002 15.3613C25.7985 15.3613 20.044 19.2641 17.228 24.8828Z" fill="#F2B829"/>
</g>
</g>
<g id="Group_21">
<g id="Group_22">
<path id="Vector_11" d="M32.5001 0C29.8208 0 27.5676 1.85415 26.9535 4.34662C17.035 6.31008 8.95832 13.4999 5.62402 22.8735C5.69766 22.8717 5.76608 22.8516 5.83997 22.8516C7.11483 22.8516 8.328 23.1126 9.44023 23.5691C12.4094 15.8408 19.1103 9.91364 27.3377 8.15725C28.2554 10.0877 30.2241 11.4258 32.5001 11.4258C35.6503 11.4258 38.213 8.86311 38.213 5.71289C38.213 2.56268 35.6503 0 32.5001 0Z" fill="#F2B829"/>
</g>
</g>
<g id="Group_23">
<g id="Group_24">
<path id="Vector_12" d="M59.1602 42.1484C57.8853 42.1484 56.6721 41.8874 55.5599 41.4309C52.5907 49.1592 45.8899 55.0864 37.6624 56.8428C36.7447 54.9123 34.776 53.5742 32.5 53.5742C29.3498 53.5742 26.7871 56.1369 26.7871 59.2871C26.7871 62.4373 29.3498 65 32.5 65C35.1793 65 37.4325 63.1459 38.0466 60.6534C47.9652 58.6899 56.0418 51.5001 59.3761 42.1266C59.3025 42.1283 59.234 42.1484 59.1602 42.1484Z" fill="#F2B829"/>
</g>
</g>
<g id="Group_25">
<g id="Group_26">
<path id="Vector_13" d="M23.5691 55.5599C15.8408 52.5907 9.91364 45.8897 8.15725 37.6624C10.0877 36.7447 11.4258 34.776 11.4258 32.5C11.4258 29.3498 8.86311 26.7871 5.71289 26.7871C2.56268 26.7871 0 29.3498 0 32.5C0 35.1793 1.85415 37.4325 4.34662 38.0466C6.31008 47.9652 13.4999 56.0418 22.8734 59.3761C22.8717 59.3025 22.8516 59.2342 22.8516 59.1602C22.8516 57.8853 23.1126 56.6721 23.5691 55.5599Z" fill="#F2B829"/>
</g>
</g>
</g>
<defs>
<clipPath id="clip0_534_4347">
<rect width="65" height="65" fill="white"/>
</clipPath>
</defs>
</svg>
