<svg width="74" height="40" viewBox="0 0 74 40" fill="none" xmlns="http://www.w3.org/2000/svg">
<g filter="url(#filter0_d_52_4867)">
<rect x="5" y="4" width="64" height="30" rx="8" fill="#FEFEFE"/>
<path d="M30.1778 20.2788H18.0334C16.3581 20.2788 15 21.6369 15 23.3122C15 24.9875 16.3581 26.3456 18.0334 26.3456H30.1778C31.8531 26.3456 33.2112 24.9875 33.2112 23.3122C33.2112 21.6369 31.8531 20.2788 30.1778 20.2788Z" fill="#84B740"/>
<path d="M30.1751 12H18.0361C16.3593 12 15 13.3593 15 15.0361C15 16.7129 16.3593 18.0722 18.0361 18.0722H30.1751C31.8519 18.0722 33.2112 16.7129 33.2112 15.0361C33.2112 13.3593 31.8519 12 30.1751 12Z" fill="#259BD6"/>
<path d="M51.4207 25.0295C51.4207 25.0777 51.3867 25.1191 51.3395 25.1286C51.0584 25.1826 50.9556 25.2042 50.7501 25.2042C50.2743 25.2042 49.7119 24.9609 49.7119 23.8146C49.7119 23.2252 49.8092 22.4412 50.696 22.4412H50.7014C50.8528 22.452 51.0258 22.4683 51.3503 22.5656C51.3921 22.5784 51.4206 22.617 51.4206 22.6607L51.4207 25.0295ZM51.5667 19.397C51.4821 19.4127 51.4207 19.4865 51.4207 19.5725V21.4085C51.4207 21.476 51.3558 21.5247 51.2909 21.5057L51.2531 21.4949C51.1071 21.4517 50.7718 21.3544 50.4474 21.3544C48.6739 21.3544 48.3008 22.6954 48.3008 23.82C48.3008 25.361 49.1659 26.2478 50.6745 26.2478C51.3126 26.2478 51.783 26.1829 52.2588 26.0261C52.6968 25.8856 52.8536 25.6854 52.8536 25.2583V20.4812C52.8536 19.8006 52.2382 19.2864 51.5667 19.397Z" fill="#27292D"/>
<path d="M56.6925 25.1503C56.6926 25.1503 56.6926 25.1503 56.6925 25.1503L56.617 25.1719L56.3466 25.2422C56.0925 25.3071 55.8654 25.345 55.6923 25.345C55.2759 25.345 55.0272 25.1395 55.0272 24.7881C55.0272 24.5609 55.13 24.177 55.8112 24.177H56.2059C56.4747 24.177 56.6925 24.3949 56.6925 24.6636V25.1503C56.6925 25.1503 56.6925 25.1503 56.6925 25.1503ZM56.0708 21.3274C55.5247 21.3274 54.9623 21.4247 54.2648 21.641L54.2302 21.6513C53.9894 21.723 53.8378 21.9607 53.8744 22.2094L53.8939 22.3416C53.9295 22.5828 54.1739 22.7337 54.4054 22.6575C54.8705 22.506 55.449 22.4088 55.8816 22.4088C56.0763 22.4088 56.6711 22.4088 56.6711 23.0522C56.6711 23.2075 56.5452 23.3334 56.3899 23.3334H55.8438C54.3352 23.3334 53.6377 23.8146 53.6377 24.8474C53.6377 25.7287 54.2812 26.2586 55.3625 26.2586C55.6978 26.2586 56.1628 26.1937 56.5629 26.0964C56.5771 26.0928 56.592 26.0928 56.6061 26.0964L56.7413 26.118C57.4097 26.2379 58.0282 25.7218 58.0282 25.0428V22.9764C58.0282 21.8843 57.3685 21.3274 56.0708 21.3274Z" fill="#27292D"/>
<path d="M46.1825 25.1503C46.1833 25.1503 46.1834 25.1514 46.1827 25.1516L46.1116 25.1719L45.8412 25.2422C45.5871 25.3071 45.3654 25.345 45.1869 25.345C44.7706 25.345 44.5218 25.1395 44.5218 24.7881C44.5218 24.5609 44.6246 24.177 45.3005 24.177H45.6952C45.9639 24.177 46.1818 24.3949 46.1818 24.6636V25.1496C46.1818 25.15 46.1821 25.1503 46.1825 25.1503ZM45.5709 21.3274C45.0193 21.3274 44.4624 21.4247 43.7649 21.641L43.7303 21.6513C43.4894 21.723 43.3378 21.9607 43.3745 22.2093L43.394 22.3416C43.4295 22.5828 43.6739 22.7337 43.9054 22.6575C44.3705 22.506 44.949 22.4088 45.3816 22.4088C45.5763 22.4088 46.1711 22.4088 46.1711 23.0522C46.1711 23.2075 46.0452 23.3334 45.8899 23.3334H45.3438C43.8352 23.3334 43.1323 23.8146 43.1323 24.8474C43.1323 25.7287 43.7758 26.2586 44.8626 26.2586C45.1978 26.2586 45.6629 26.1937 46.063 26.0964C46.0772 26.0928 46.092 26.0928 46.1062 26.0964L46.236 26.118C46.902 26.236 47.5228 25.7236 47.5228 25.0472V22.9818C47.5283 21.8789 46.8686 21.3274 45.5709 21.3274Z" fill="#27292D"/>
<path d="M40.4967 21.3389C39.8099 21.3389 39.2422 21.5661 39.0314 21.6634C38.9983 21.6799 38.9588 21.676 38.9296 21.6533L38.9286 21.6526C38.6366 21.4417 38.2095 21.3335 37.6147 21.3335C37.0902 21.3335 36.5982 21.4092 36.0628 21.566C35.6032 21.7065 35.4248 21.9283 35.4248 22.3446V25.4808C35.4248 25.878 35.7468 26.1999 36.144 26.1999C36.5411 26.1999 36.8631 25.878 36.8631 25.4808V22.7102C36.8631 22.6665 36.8916 22.6278 36.9334 22.615C37.2254 22.5177 37.3985 22.5014 37.5661 22.5014C37.9824 22.5014 38.1933 22.7231 38.1933 23.1557V25.497C38.1933 25.8882 38.5104 26.2053 38.9016 26.2053C39.2929 26.2053 39.61 25.8882 39.61 25.497V23.0962C39.61 22.9325 39.58 22.8289 39.5696 22.7928C39.5676 22.786 39.5651 22.7794 39.5617 22.7732C39.5381 22.7286 39.5572 22.6733 39.6034 22.6528L39.6153 22.6474C39.8317 22.5501 40.0696 22.5014 40.3182 22.5014C40.6048 22.5014 40.9454 22.615 40.9454 23.1557V25.4997C40.9454 25.8894 41.2614 26.2053 41.6511 26.2053C42.0408 26.2053 42.3567 25.8894 42.3567 25.4997V23.0152C42.3567 21.885 41.7511 21.3389 40.4967 21.3389Z" fill="#27292D"/>
<path d="M55.6357 15.958C55.4249 15.958 55.0734 15.9363 54.7977 15.8823C54.7505 15.8728 54.7165 15.8314 54.7165 15.7833V13.7842C54.7165 13.6112 54.6841 13.5031 54.6786 13.4868C54.6553 13.4401 54.6765 13.3834 54.7248 13.3635L54.7273 13.3624C54.7468 13.3527 54.7663 13.3473 54.7897 13.3385C54.795 13.3364 54.8 13.3338 54.8048 13.3306C54.8109 13.3266 54.8174 13.3234 54.8243 13.3211C54.8533 13.3114 54.8823 13.3018 54.9112 13.2921C54.9361 13.2838 54.962 13.2777 54.9874 13.2713C55.2914 13.1957 55.5654 13.2052 55.6899 13.1948H55.6953C56.5766 13.1948 56.6794 13.9788 56.6794 14.5683C56.6739 15.7147 56.1061 15.958 55.6357 15.958ZM55.6304 12C55.6196 12 55.6033 12 55.5925 12C54.7652 12 53.9163 12.2271 53.6135 12.6705C53.4512 12.8868 53.3594 13.1571 53.3539 13.4761V15.6227C53.3539 15.7777 53.327 15.8519 53.3153 15.8812C53.3122 15.8891 53.3087 15.8969 53.3047 15.9044C53.2784 15.954 53.2269 15.985 53.1708 15.985H51.3965C50.9844 15.985 50.6504 15.651 50.6504 15.2389V14.4954C50.6504 14.4939 50.6491 14.4927 50.6476 14.4927C50.6461 14.4927 50.6449 14.4914 50.6449 14.4899C50.6114 12.9182 49.6817 12.0541 48.3361 12.0541H48.1793H47.4736C47.2147 12.0541 46.9947 12.2486 46.9567 12.5047C46.9103 12.8169 47.1529 13.0923 47.4686 13.0923H48.1793C48.866 13.0923 49.2283 13.6762 49.2283 14.5738V15.9778C49.2283 16.0228 49.1805 16.0516 49.1407 16.0306C49.1378 16.029 49.1349 16.0278 49.1318 16.0268C49.1045 16.0179 48.9946 15.985 48.8281 15.985H47.0101C46.7559 15.985 46.5452 16.1375 46.5076 16.3889C46.4609 16.7016 46.6974 17.0178 47.0135 17.0178H53.1748C53.2975 17.0178 53.4168 17.0055 53.5374 16.9834C53.9076 16.9157 54.2929 16.9844 54.6617 17.0594C54.9649 17.1211 55.3008 17.153 55.5653 17.153C57.0739 17.153 58.0526 16.1418 58.0526 14.5846C58.0473 13.0436 57.1011 12.0324 55.6304 12Z" fill="#27292D"/>
<path d="M43.4491 17.6508H43.514C45.0226 17.6508 45.7255 17.1533 45.7255 15.9259C45.7255 15.0445 45.082 14.3416 44.0007 14.3416H42.6111C42.1947 14.3416 41.946 14.1037 41.946 13.7036C41.946 13.4333 42.0487 13.098 42.73 13.098H45.3254C45.5811 13.098 45.8004 12.9071 45.838 12.6542C45.885 12.3383 45.6382 12.0598 45.3189 12.0598H42.7678C41.297 12.0598 40.5563 12.6762 40.5563 13.7036C40.5563 14.7201 41.1997 15.25 42.2811 15.25H43.6707C44.0871 15.25 44.3358 15.5799 44.3358 15.9259C44.3358 16.1531 44.233 16.6235 43.5571 16.6235H43.3247L38.8746 16.6127H38.0635C37.3768 16.6127 36.8955 16.2234 36.8955 15.3203V14.6985C36.8955 13.7577 37.2687 13.1737 38.0635 13.1737H38.9362C39.1928 13.1737 39.4128 12.973 39.4502 12.7192C39.4962 12.4073 39.2522 12.1409 38.937 12.1409H37.8904H37.7336C36.3872 12.1409 35.4572 13.044 35.4248 14.6174V14.6769V15.3203C35.4572 16.8938 36.3872 17.6454 37.7336 17.6454H37.8904H39.0475L41.4591 17.6509H42.8974L43.4491 17.6508Z" fill="#27292D"/>
</g>
<defs>
<filter id="filter0_d_52_4867" x="0" y="0" width="74" height="40" filterUnits="userSpaceOnUse" color-interpolation-filters="sRGB">
<feFlood flood-opacity="0" result="BackgroundImageFix"/>
<feColorMatrix in="SourceAlpha" type="matrix" values="0 0 0 0 0 0 0 0 0 0 0 0 0 0 0 0 0 0 127 0" result="hardAlpha"/>
<feOffset dy="1"/>
<feGaussianBlur stdDeviation="2.5"/>
<feComposite in2="hardAlpha" operator="out"/>
<feColorMatrix type="matrix" values="0 0 0 0 0 0 0 0 0 0 0 0 0 0 0 0 0 0 0.11 0"/>
<feBlend mode="normal" in2="BackgroundImageFix" result="effect1_dropShadow_52_4867"/>
<feBlend mode="normal" in="SourceGraphic" in2="effect1_dropShadow_52_4867" result="shape"/>
</filter>
</defs>
</svg>
