<svg width="83" height="56" viewBox="0 0 83 56" fill="none" xmlns="http://www.w3.org/2000/svg">
<g filter="url(#filter0_d_52_4866)">
<path d="M48.9504 14.1785H33.6328V41.822H48.9504V14.1785Z" fill="#FF5F00"/>
<path d="M34.6053 28.0032C34.6024 25.3405 35.203 22.7122 36.3614 20.3171C37.5198 17.922 39.2057 15.823 41.2915 14.179C38.709 12.1409 35.6075 10.8735 32.3417 10.5217C29.0758 10.1699 25.7772 10.7478 22.823 12.1895C19.8687 13.6312 17.378 15.8785 15.6354 18.6745C13.8928 21.4704 12.9688 24.7023 12.9688 28.0008C12.9687 31.2992 13.8928 34.5311 15.6354 37.327C17.378 40.123 19.8687 42.3703 22.823 43.812C25.7772 45.2537 29.0758 45.8316 32.3417 45.4798C35.6075 45.128 38.709 43.8606 41.2915 41.8225C39.2064 40.1791 37.5208 38.0808 36.3625 35.6866C35.2041 33.2925 34.6032 30.665 34.6053 28.0032Z" fill="#EB001B"/>
<path d="M69.6168 28.0025C69.6167 31.3012 68.6924 34.5333 66.9496 37.3294C65.2067 40.1254 62.7156 42.3726 59.761 43.8141C56.8063 45.2556 53.5075 45.8332 50.2414 45.4809C46.9753 45.1286 43.8738 43.8606 41.2915 41.8219C43.3758 40.1769 45.0609 38.0781 46.2196 35.6838C47.3783 33.2895 47.9803 30.6622 47.9803 28.0001C47.9803 25.338 47.3783 22.7107 46.2196 20.3164C45.0609 17.922 43.3758 15.8233 41.2915 14.1783C43.8738 12.1396 46.9753 10.8716 50.2414 10.5193C53.5075 10.167 56.8063 10.7446 59.761 12.1861C62.7156 13.6275 65.2067 15.8748 66.9496 18.6708C68.6924 21.4669 69.6167 24.699 69.6168 27.9977V28.0025Z" fill="#F79E1B"/>
</g>
<defs>
<filter id="filter0_d_52_4866" x="-5" y="-4" width="93" height="66" filterUnits="userSpaceOnUse" color-interpolation-filters="sRGB">
<feFlood flood-opacity="0" result="BackgroundImageFix"/>
<feColorMatrix in="SourceAlpha" type="matrix" values="0 0 0 0 0 0 0 0 0 0 0 0 0 0 0 0 0 0 127 0" result="hardAlpha"/>
<feOffset dy="1"/>
<feGaussianBlur stdDeviation="2.5"/>
<feComposite in2="hardAlpha" operator="out"/>
<feColorMatrix type="matrix" values="0 0 0 0 0 0 0 0 0 0 0 0 0 0 0 0 0 0 0.11 0"/>
<feBlend mode="normal" in2="BackgroundImageFix" result="effect1_dropShadow_52_4866"/>
<feBlend mode="normal" in="SourceGraphic" in2="effect1_dropShadow_52_4866" result="shape"/>
</filter>
</defs>
</svg>
