<svg xmlns="http://www.w3.org/2000/svg" width="123" height="123" viewBox="0 0 123 123">
  <g id="Group_241" data-name="Group 241" transform="translate(-627 -1313)">
    <circle id="Ellipse_98" data-name="Ellipse 98" cx="61.5" cy="61.5" r="61.5" transform="translate(627 1313)" fill="#1b548a"/>
    <g id="SVGRepo_iconCarrier1" transform="translate(615.333 1283.05)">
      <g id="Page-1" transform="translate(42.667 64)">
        <g id="icon" transform="translate(0 0)">
          <path id="Combined-Shape" d="M33.55,0V48.8h18.3V18.3H39.65V12.2h18.3V48.8H61v6.1H0V48.8H3.05V0Zm-6.1,6.1H9.15V48.8h6.1V39.65h6.1V48.8h6.1Zm18.3,30.5v6.1h-6.1V36.6ZM21.35,24.4v6.1h-6.1V24.4Zm24.4,0v6.1h-6.1V24.4ZM21.35,12.2v6.1h-6.1V12.2Z" transform="translate(0 0)" fill="#fff" fill-rule="evenodd"/>
        </g>
      </g>
    </g>
  </g>
</svg>
