<svg xmlns="http://www.w3.org/2000/svg" width="123" height="123" viewBox="0 0 123 123">
  <g id="Group_239" data-name="Group 239" transform="translate(-1361 -1313)">
    <circle id="Ellipse_96" data-name="Ellipse 96" cx="61.5" cy="61.5" r="61.5" transform="translate(1361 1313)" fill="#1b548a"/>
    <g id="SVGRepo_iconCarrier" transform="translate(1388.647 1340.6)">
      <g id="Group_209" data-name="Group 209" transform="translate(4.402 2.22)">
        <g id="Group_208" data-name="Group 208">
          <path id="Path_126" data-name="Path 126" d="M211.828,16.768h32.556a1.469,1.469,0,0,1,1.469,1.469V29.685l-1.629-1.012a4.073,4.073,0,0,0-1.309-.527v-8.44H213.3V40.9h29.618V37.468l2.938,1.825v3.073a1.469,1.469,0,0,1-1.469,1.469H211.828a1.469,1.469,0,0,1-1.469-1.469V18.237A1.469,1.469,0,0,1,211.828,16.768Z" transform="translate(-210.359 -16.768)" fill="#fff"/>
        </g>
      </g>
      <g id="Group_211" data-name="Group 211" transform="translate(26.989 9.946)">
        <g id="Group_210" data-name="Group 210" transform="translate(0)">
          <path id="Path_127" data-name="Path 127" d="M256.041,75.536a1.13,1.13,0,0,1,1.587-.188l5.061,3.99a4.064,4.064,0,0,0-1.232,1.262,4.106,4.106,0,0,0-.243.454l-4.986-3.931A1.13,1.13,0,0,1,256.041,75.536Z" transform="translate(-255.798 -75.106)" fill="#fff"/>
        </g>
      </g>
      <g id="Group_213" data-name="Group 213" transform="translate(47.431 0)">
        <g id="Group_212" data-name="Group 212" transform="translate(0)">
          <ellipse id="Ellipse_91" data-name="Ellipse 91" cx="4.229" cy="4.229" rx="4.229" ry="4.229" fill="#fff"/>
        </g>
      </g>
      <g id="Group_215" data-name="Group 215" transform="translate(34.075 9.806)">
        <g id="Group_214" data-name="Group 214">
          <path id="Path_128" data-name="Path 128" d="M43.367,80.759a2.041,2.041,0,0,1,2.81-.657l4.132,2.566c.017-3.427.008-1.608.019-3.815a4.839,4.839,0,0,1,4.829-4.8h2.007c1.715,4.448,1.163,2.8,2.618,6.572l-.612-2.666a.85.85,0,0,1,.087-.587l.829-1.509L59.35,74.52a.3.3,0,0,1,.263-.444h2.022a.3.3,0,0,1,.263.444l-.738,1.341.831,1.511a.852.852,0,0,1,.089.576l-.53,2.671,2.534-6.572h2.048a4.839,4.839,0,0,1,4.829,4.8l.075,14.99a2.04,2.04,0,0,1-2.03,2.051H69a2.04,2.04,0,0,1-2.04-2.03l-.075-14.99v-.007a.4.4,0,0,0-.809.006V100.11a6.808,6.808,0,0,0-4.9,1.777V93.6H60.116v9.5a6.827,6.827,0,0,0-.191,7.377,7.431,7.431,0,0,0-1.867.246,6.825,6.825,0,0,0-2.839-1.475c0-36.991.044-14.12.044-30.38a.427.427,0,0,0-.854,0c-.007,1.431-.03,5.9-.037,7.462a2.04,2.04,0,0,1-3.117,1.723l-7.231-4.489A2.04,2.04,0,0,1,43.367,80.759Z" transform="translate(-43.06 -74.048)" fill="#fff"/>
        </g>
      </g>
      <g id="Group_217" data-name="Group 217" transform="translate(6.439 38.273)">
        <g id="Group_216" data-name="Group 216">
          <ellipse id="Ellipse_92" data-name="Ellipse 92" cx="4.476" cy="4.476" rx="4.476" ry="4.476" fill="#fff"/>
        </g>
      </g>
      <g id="Group_219" data-name="Group 219" transform="translate(0 48.652)">
        <g id="Group_218" data-name="Group 218">
          <path id="Path_129" data-name="Path 129" d="M386.309,372.492a5.122,5.122,0,0,1,5.111-5.086h11.227a6.823,6.823,0,0,0,.238,6.665,7.484,7.484,0,0,0-5.979,3.429h-5.374v-4.956a.453.453,0,0,0-.9-.031h0L390.6,377.5h-4.32Z" transform="translate(-386.284 -367.407)" fill="#fff"/>
        </g>
      </g>
      <g id="Group_221" data-name="Group 221" transform="translate(28.268 48.603)">
        <g id="Group_220" data-name="Group 220" transform="translate(0)">
          <path id="Path_130" data-name="Path 130" d="M220.086,370.2a6.8,6.8,0,0,0-.781-3.167h9.967a6.824,6.824,0,0,0,.269,6.589,7.456,7.456,0,0,0-5.334,2.286,7.4,7.4,0,0,0-5.143-2.118A6.831,6.831,0,0,0,220.086,370.2Z" transform="translate(-219.064 -367.036)" fill="#fff"/>
        </g>
      </g>
      <g id="Group_223" data-name="Group 223" transform="translate(28.209 38.224)">
        <g id="Group_222" data-name="Group 222" transform="translate(0)">
          <path id="Path_131" data-name="Path 131" d="M235.491,288.655a4.476,4.476,0,1,1-4.476,4.476A4.476,4.476,0,0,1,235.491,288.655Z" transform="translate(-231.015 -288.655)" fill="#fff"/>
        </g>
      </g>
      <g id="Group_225" data-name="Group 225" transform="translate(50.411 48.603)">
        <g id="Group_224" data-name="Group 224" transform="translate(0)">
          <path id="Path_132" data-name="Path 132" d="M1.379,370.082a6.8,6.8,0,0,0-.717-3.043c.193-.01-.619-.007,11.85-.007a5.124,5.124,0,0,1,5.111,5.086l.025,5.058h-4.32L13.3,372.14a.452.452,0,0,0-.9,0v5.034H6.344a7.439,7.439,0,0,0-5.991-3.5A6.788,6.788,0,0,0,1.379,370.082Z" transform="translate(-0.353 -367.032)" fill="#fff"/>
        </g>
      </g>
      <g id="Group_227" data-name="Group 227" transform="translate(52.314 38.224)">
        <g id="Group_226" data-name="Group 226" transform="translate(0)">
          <path id="Path_133" data-name="Path 133" d="M53.459,288.655a4.476,4.476,0,1,1-4.476,4.476A4.476,4.476,0,0,1,53.459,288.655Z" transform="translate(-48.983 -288.655)" fill="#fff"/>
        </g>
      </g>
      <g id="Group_229" data-name="Group 229" transform="translate(11.776 57.538)">
        <g id="Group_228" data-name="Group 228">
          <path id="Path_134" data-name="Path 134" d="M94.467,439.714a5.122,5.122,0,0,1,5.111-5.086H110.9a5.251,5.251,0,0,1,5.258,5.086l.036-.118a5.123,5.123,0,0,1,5.111-5.086H132.63a5.251,5.251,0,0,1,5.258,5.086l.025,5.176h-4.32l-.025-5.154a.389.389,0,0,0-.779,0v5.152H121.35v-5.152a.417.417,0,0,0-.834,0l-.025,5.154h-8.625l-.025-5.036h0a.389.389,0,0,0-.779,0v5.034H99.621v-5.034a.417.417,0,0,0-.834,0l-.025,5.036h-4.32Z" transform="translate(-94.442 -434.51)" fill="#fff"/>
        </g>
      </g>
      <g id="Group_231" data-name="Group 231" transform="translate(39.927 47.107)">
        <g id="Group_230" data-name="Group 230" transform="translate(0)">
          <ellipse id="Ellipse_93" data-name="Ellipse 93" cx="4.529" cy="4.529" rx="4.529" ry="4.529" fill="#fff"/>
        </g>
      </g>
      <g id="Group_233" data-name="Group 233" transform="translate(17.927 47.224)">
        <g id="Group_232" data-name="Group 232" transform="translate(0)">
          <ellipse id="Ellipse_94" data-name="Ellipse 94" cx="4.529" cy="4.529" rx="4.529" ry="4.529" fill="#fff"/>
        </g>
      </g>
    </g>
  </g>
</svg>
